<svg xmlns="http://www.w3.org/2000/svg" id="hand" width="232.995" height="316" viewBox="0 0 232.995 316">
    <defs>
        <style>
            .cls-1{fill:#fff}
        </style>
    </defs>

    <path d="M146.735 37.79a7.5 7.5 0 0 1-7.5-7.5V7.5a7.5 7.5 0 0 1 15 0v22.79a7.5 7.5 0 0 1-7.5 7.5z" class="cls-1" transform="translate(-18.645)"/>
    <path d="M230.979 98.9a7.5 7.5 0 0 1-7.5 7.5h-22.79a7.5 7.5 0 0 1 0-15h22.79a7.5 7.5 0 0 1 7.5 7.5z" class="cls-1" transform="translate(-149.343 -.199)"/>
    <path d="M210.859 56.468a7.481 7.481 0 0 1-5.3-2.2L189.44 38.157a7.5 7.5 0 0 1 10.607-10.607l16.116 16.114a7.5 7.5 0 0 1-5.3 12.8z" class="cls-1" transform="translate(-130.778)"/>
    <path d="M82.014 54.271a7.5 7.5 0 0 1-10.608-10.607l16.116-16.115a7.5 7.5 0 0 1 10.607 10.607z" class="cls-1" transform="translate(105.29)"/>
    <path d="M87.209 106.4h-22.79a7.5 7.5 0 1 1 0-15h22.79a7.5 7.5 0 1 1 0 15z" class="cls-1" transform="translate(123.197 -.199)"/>
</svg>
