<svg xmlns="http://www.w3.org/2000/svg" id="hand" width="232.995" height="316" viewBox="0 0 232.995 316">
    <defs>
        <style>
            .cls-1{fill:#fff}
        </style>
    </defs>

    <path d="M146.735 37.79a7.5 7.5 0 0 0 7.5-7.5V7.5a7.5 7.5 0 0 0-15 0v22.79a7.5 7.5 0 0 0 7.5 7.5z" class="cls-1" transform="translate(-41.83)"/>
    <path d="M193.189 98.9a7.5 7.5 0 0 0 7.5 7.5h22.79a7.5 7.5 0 1 0 0-15h-22.79a7.5 7.5 0 0 0-7.5 7.5z" class="cls-1" transform="translate(-41.83 -.199)"/>
    <path d="M194.744 56.468a7.481 7.481 0 0 0 5.3-2.2l16.115-16.115a7.5 7.5 0 1 0-10.603-10.603L189.44 43.664a7.5 7.5 0 0 0 5.3 12.8z" class="cls-1" transform="translate(-41.83)"/>
    <path d="M87.521 54.271a7.5 7.5 0 0 0 10.608-10.607L82.013 27.549a7.5 7.5 0 0 0-10.607 10.607z" class="cls-1" transform="translate(-41.83)"/>
    <path d="M64.419 106.4h22.79a7.5 7.5 0 1 0 0-15h-22.79a7.5 7.5 0 1 0 0 15z" class="cls-1" transform="translate(-41.83 -.199)"/>
</svg>
