<svg xmlns="http://www.w3.org/2000/svg" id="hand" width="232.995" height="316" viewBox="0 0 232.995 316">
    <defs>
        <style>
            .cls-1{fill:#fff}
        </style>
    </defs>
    <path d="M257.591 182.757a70.481 70.481 0 0 0-43.217-23.491l-38.492-6.021v-67a28.927 28.927 0 0 0-28.931-28.857h-.433a28.927 28.927 0 0 0-28.931 28.852v107.607l-39.793-17.01a25.8 25.8 0 0 0-35.964 23.654v.362a25.726 25.726 0 0 0 8.656 19.231l67.1 59.518v28.916a7.5 7.5 0 0 0 15 0v-32.274a7.468 7.468 0 0 0-2.517-5.59l-69.616-61.749a10.768 10.768 0 0 1-3.623-8.051v-.362a10.8 10.8 0 0 1 15.055-9.9l50.24 21.477a7.452 7.452 0 0 0 3.7.571c.084-.008.166-.024.249-.035.155-.021.311-.041.464-.071.134-.026.265-.063.4-.1.1-.026.2-.047.3-.077.149-.044.294-.1.439-.152.08-.029.162-.056.241-.088.142-.058.28-.124.417-.19.081-.039.164-.075.243-.117.123-.065.241-.137.36-.207.091-.055.184-.107.273-.166s.194-.138.291-.207.205-.147.3-.226c.079-.064.153-.134.23-.2.106-.094.214-.187.315-.286.068-.067.131-.139.2-.207.1-.106.2-.209.293-.322.072-.086.136-.177.2-.264s.157-.2.23-.306c.092-.135.175-.274.258-.415.04-.067.083-.13.121-.2a7.414 7.414 0 0 0 .934-3.617V86.24a13.928 13.928 0 0 1 13.931-13.895h.433A13.928 13.928 0 0 1 160.88 86.24v71.842a7.611 7.611 0 0 0 .047.818 7.477 7.477 0 0 0 6.291 8.133l44.88 7.019.107.017a55.585 55.585 0 0 1 47.621 54.731v.764a79.253 79.253 0 0 1-8.956 36.513l-20.345 38.989a7.5 7.5 0 0 0 13.3 6.908l20.345-38.989a94.231 94.231 0 0 0 10.651-43.422v-.763a70.129 70.129 0 0 0-17.23-46.043z" class="cls-1" transform="translate(-41.83)"/>
</svg>
