<svg xmlns="http://www.w3.org/2000/svg" id="hand" width="232.995" height="316" viewBox="0 0 232.995 316">
    <defs>
        <style>
            .cls-1{fill:#fff}
        </style>
    </defs>
    <path d="M59.064 182.757a70.481 70.481 0 0 1 43.217-23.491l38.492-6.021v-67A28.927 28.927 0 0 1 169.7 57.383h.433a28.927 28.927 0 0 1 28.935 28.857v107.607l39.793-17.011a25.8 25.8 0 0 1 35.964 23.655v.362a25.726 25.726 0 0 1-8.656 19.231l-67.1 59.518v28.916a7.5 7.5 0 0 1-15 0v-32.274a7.468 7.468 0 0 1 2.517-5.59l69.614-61.749a10.768 10.768 0 0 0 3.623-8.051v-.362a10.8 10.8 0 0 0-15.055-9.9l-50.24 21.477a7.452 7.452 0 0 1-3.7.571c-.084-.008-.166-.024-.249-.035-.155-.021-.311-.041-.464-.071-.134-.026-.265-.063-.4-.1-.1-.026-.2-.047-.3-.077-.149-.044-.294-.1-.439-.152-.08-.029-.162-.056-.241-.088a7.486 7.486 0 0 1-.417-.19c-.081-.039-.164-.075-.243-.117-.123-.065-.241-.137-.36-.207-.091-.055-.184-.107-.273-.166s-.194-.138-.291-.207-.205-.147-.3-.226c-.079-.064-.153-.134-.23-.2-.106-.094-.214-.187-.315-.286-.068-.067-.131-.139-.2-.207-.1-.106-.2-.209-.293-.322-.072-.086-.136-.177-.2-.264s-.157-.2-.23-.306a7.364 7.364 0 0 1-.258-.415c-.04-.067-.083-.13-.121-.2a7.414 7.414 0 0 1-.934-3.617V86.24a13.928 13.928 0 0 0-13.931-13.895h-.433a13.928 13.928 0 0 0-13.931 13.895v71.842a7.611 7.611 0 0 1-.047.818 7.477 7.477 0 0 1-6.291 8.133l-44.88 7.019-.107.017A55.585 55.585 0 0 0 56.829 228.8v.764a79.253 79.253 0 0 0 8.956 36.513l20.345 38.986a7.5 7.5 0 0 1-13.3 6.908l-20.349-38.989a94.231 94.231 0 0 1-10.651-43.421v-.761a70.129 70.129 0 0 1 17.234-46.043z" class="cls-1" transform="translate(-41.83)"/>
</svg>
