<svg xmlns="http://www.w3.org/2000/svg" viewBox="0 0 690 689.5"><defs><style>.a{fill:none;}.b{fill:#db0303;}.c{isolation:isolate;}</style></defs><title>recognize-marker-signal</title><circle class="a" cx="345" cy="345" r="340"/><path class="b" d="M368.83,694.5l-.54-10a336.69,336.69,0,0,0,48.81-6.23l2,9.8A347,347,0,0,1,368.83,694.5Zm-50.66-1a345.07,345.07,0,0,1-50-8.31l2.37-9.72a334.74,334.74,0,0,0,48.53,8.07Zm149.7-19.21-3.42-9.4a333,333,0,0,0,44.84-20.16l4.76,8.79A343.77,343.77,0,0,1,467.87,674.34Zm-247.94-4.7a345.12,345.12,0,0,1-45.42-22.54l5.1-8.61a335.52,335.52,0,0,0,44.09,21.89Zm336.78-43.4-6-8a337.13,337.13,0,0,0,37.11-32.31l7.1,7.05A347.13,347.13,0,0,1,556.71,626.24Zm-423.8-8.09A349.24,349.24,0,0,1,96,583.45l7.37-6.77a339,339,0,0,0,35.86,33.7Zm495-63.66-8-5.94a335.58,335.58,0,0,0,26.22-41.65l8.84,4.68A345.82,345.82,0,0,1,627.89,554.49ZM64.5,543.75a345.48,345.48,0,0,1-25.33-43.87l9-4.35a334,334,0,0,0,24.59,42.59Zm610.81-78.58-9.43-3.34a332.93,332.93,0,0,0,13-47.51l9.82,1.91A344.32,344.32,0,0,1,675.31,465.17ZM20.56,452.74A343.93,343.93,0,0,1,9.1,403.37L19,401.84a332.41,332.41,0,0,0,11.12,47.92Zm674.08-86.82-10-.45c.23-5.12.35-10.32.35-15.47,0-11.25-.56-22.59-1.68-33.73l10-1C694.42,326.74,695,338.42,695,350,695,355.3,694.88,360.65,694.64,365.92ZM5,352.87c0-.95,0-1.91,0-2.87a349.37,349.37,0,0,1,3.27-47.69l9.91,1.37A338.88,338.88,0,0,0,15,350c0,.93,0,1.86,0,2.79Zm669.83-85.06a332.33,332.33,0,0,0-15.53-46.69l9.23-3.85a343.2,343.2,0,0,1,16,48.09ZM28.49,255.57l-9.6-2.81a344.32,344.32,0,0,1,17.84-47.47l9.07,4.2A334.14,334.14,0,0,0,28.49,255.57Zm608.6-78.31a338.56,338.56,0,0,0-28.42-40.15l7.71-6.36a346.28,346.28,0,0,1,29.27,41.35ZM69.71,166.46,61.35,161a347,347,0,0,1,30.83-40.22l7.47,6.64A338.09,338.09,0,0,0,69.71,166.46Zm505-64.95a338.23,338.23,0,0,0-38.81-30.26l5.55-8.32a347.46,347.46,0,0,1,40,31.17ZM135,93.11l-6.42-7.66a347,347,0,0,1,41.11-29.61l5.23,8.52A337.83,337.83,0,0,0,135,93.11ZM493,47A333.73,333.73,0,0,0,447.1,29.29L450,19.71a344.63,344.63,0,0,1,47.32,18.23ZM218.56,41.77l-3.93-9.2a344.13,344.13,0,0,1,48-16.4l2.52,9.68A333.09,333.09,0,0,0,218.56,41.77Zm180.52-23.2A339.87,339.87,0,0,0,313.5,17L312.43,7a350,350,0,0,1,88.1,1.65Z" transform="translate(-5 -5)"/><g class="c"><g class="c"><path class="b" d="M114.72,311.08h14.49c10.57,0,15.68,5,15.68,13.87,0,9.24-6,14.28-15,14.28h-9.59v18.83h-5.6Zm14.07,23.53c7.28,0,10.15-3,10.15-9.31,0-6.65-2.66-9.52-10.29-9.52h-8.33v18.83Z" transform="translate(-5 -5)"/><path class="b" d="M152.66,307.93h5.39v50.13h-5.39Z" transform="translate(-5 -5)"/><path class="b" d="M166.24,341.19v-1c0-12.11,7.14-17.5,15.12-17.5,9.52,0,14,5.53,14,16.31v3H171.7c.28,8.68,4.41,12,11.83,12a23.63,23.63,0,0,0,10.85-2.59v4a20.64,20.64,0,0,1-11.69,3.22C171.77,358.69,166.24,352,166.24,341.19Zm5.46-3.43h18.06c0-7.56-2.87-10.71-8.54-10.71C176.88,327.05,172.26,329.57,171.7,337.76Z" transform="translate(-5 -5)"/><path class="b" d="M201,349c0-6.09,3.92-9.31,10.57-10.08l9.38-1.12v-3.64c0-5.39-2.38-6.79-8.61-6.79a29.4,29.4,0,0,0-8.26,1.12V324.6a26.31,26.31,0,0,1,10.36-1.89c7.63,0,11.9,3.15,11.9,10.22v25.13H222l-.56-3h-.35c-1.61,2-4.55,3.64-9.24,3.64C205.58,358.69,201,355.47,201,349ZM221,352V341.75l-8,.91c-4.27.42-6.37,2.17-6.37,6.16,0,3.78,2.59,5.67,6.58,5.67C216.43,354.49,219.51,353.44,221,352Z" transform="translate(-5 -5)"/><path class="b" d="M234.07,356.17V351.9a25.49,25.49,0,0,0,10.43,2.17c5.53,0,7.77-2,7.77-5.11s-1.61-4.62-6-5.88l-3.43-.91c-5-1.4-8.47-3.71-8.47-9.59s3.85-9.87,11.83-9.87a19.68,19.68,0,0,1,9.45,2v4.34a22.4,22.4,0,0,0-9.17-1.82c-4.69,0-7,1.61-7,4.83,0,3,1.47,4.27,5.18,5.32l3.5,1c6.65,1.75,9.38,4,9.38,10,0,6.58-4.62,10.22-12.25,10.22A22.88,22.88,0,0,1,234.07,356.17Z" transform="translate(-5 -5)"/><path class="b" d="M263.33,341.19v-1c0-12.11,7.14-17.5,15.12-17.5,9.52,0,14,5.53,14,16.31v3H268.79c.28,8.68,4.41,12,11.83,12a23.63,23.63,0,0,0,10.85-2.59v4a20.64,20.64,0,0,1-11.69,3.22C268.86,358.69,263.33,352,263.33,341.19Zm5.46-3.43h18.06c0-7.56-2.87-10.71-8.54-10.71C274,327.05,269.35,329.57,268.79,337.76Z" transform="translate(-5 -5)"/><path class="b" d="M318.91,323.34H324v3.92h.35A13.57,13.57,0,0,1,334,323a14.79,14.79,0,0,1,2.1.14V328a19.1,19.1,0,0,0-2.52-.21,16.4,16.4,0,0,0-9.31,3v27.3h-5.39Z" transform="translate(-5 -5)"/><path class="b" d="M341,341.19v-1c0-12.11,7.14-17.5,15.12-17.5,9.52,0,14,5.53,14,16.31v3H346.42c.28,8.68,4.41,12,11.83,12a23.63,23.63,0,0,0,10.85-2.59v4a20.64,20.64,0,0,1-11.69,3.22C346.49,358.69,341,352,341,341.19Zm5.46-3.43h18.06c0-7.56-2.87-10.71-8.54-10.71C351.6,327.05,347,329.57,346.42,337.76Z" transform="translate(-5 -5)"/><path class="b" d="M376,341.4v-1c0-12.32,7.28-17.64,16.24-17.64,4.55,0,7.28.84,9.59,2.31v4.48a20.38,20.38,0,0,0-9.87-2.24c-6.3,0-10.43,4.27-10.43,12.25v1.68c0,8.89,3.71,12.88,11.13,12.88a18.74,18.74,0,0,0,9.52-2.45V356A18.76,18.76,0,0,1,392,358.69C382.05,358.69,376,352.81,376,341.4Z" transform="translate(-5 -5)"/><path class="b" d="M407.46,341.33v-1.05c0-11,6.37-17.57,15.75-17.57,9.8,0,15.75,6.37,15.75,17.36v1c0,11.06-6.44,17.64-15.82,17.64C413.34,358.69,407.46,352.39,407.46,341.33Zm26,.35v-1.75c0-9.66-4.69-12.81-10.36-12.81-6.3,0-10.22,4.48-10.22,12.6v1.75c0,9.66,4.55,12.81,10.36,12.81C429.58,354.28,433.5,349.87,433.5,341.68Z" transform="translate(-5 -5)"/><path class="b" d="M443.58,360.23c0-3.71,3-5.88,6.58-7.07v-.35a4.44,4.44,0,0,1-3.5-4.34c0-2.17,1.26-3.78,3.92-5.74-2.66-1.75-4.34-4.55-4.34-8.68v-.14c0-7.21,5.46-11.2,13.09-11.2a21.88,21.88,0,0,1,4.9.56H476v4.13h-6.23a8.42,8.42,0,0,1,2.52,6.37v.07c0,7.42-5.74,11.13-13,11.13a18,18,0,0,1-5.95-1,3.91,3.91,0,0,0-1.61,2.8c0,1.89,1.12,2.59,3.43,2.59h9.59c6.3,0,11,1.89,11,8.33,0,6-4.76,10.64-16.59,10.64C448.55,368.35,443.58,365.27,443.58,360.23Zm26.53-1.82c0-3.22-1.68-4.27-6.23-4.27h-10c-2.66.91-4.69,2.45-4.69,5.39s2.94,4.62,9.8,4.62C467.17,364.15,470.11,362.05,470.11,358.41Zm-3.22-24.36v-.35c0-4.76-2.94-6.93-7.63-6.93s-7.7,2.52-7.7,6.86V334c0,4.55,3.08,6.79,7.7,6.79C464.09,340.77,466.89,338.53,466.89,334.05Z" transform="translate(-5 -5)"/><path class="b" d="M482.43,323.34h5.11v3h.28a23,23,0,0,1,12-3.64c6.79,0,10.08,2.73,10.08,9.45v25.9h-5.32V333.28c0-4.2-1.47-5.95-7-5.95a24.77,24.77,0,0,0-9.8,2.52v28.21h-5.32Z" transform="translate(-5 -5)"/><path class="b" d="M520.09,310.8h5.46v5.61h-5.46Zm.07,12.61h5.32v34.65h-5.32Z" transform="translate(-5 -5)"/><path class="b" d="M533.59,354l19.19-26.11v-.21H534.65v-4.34h24.64v3.85l-19.18,26.32v.14h19.11v4.41H533.59Z" transform="translate(-5 -5)"/><path class="b" d="M565.23,341.19v-1c0-12.11,7.15-17.5,15.13-17.5,9.52,0,14,5.53,14,16.31v3H570.69c.28,8.68,4.42,12,11.84,12a23.63,23.63,0,0,0,10.85-2.59v4a20.64,20.64,0,0,1-11.69,3.22C570.76,358.69,565.23,352,565.23,341.19Zm5.46-3.43h18.07c0-7.56-2.87-10.71-8.54-10.71C575.88,327.05,571.25,329.57,570.69,337.76Z" transform="translate(-5 -5)"/></g><g class="c"><path class="b" d="M255,407.34h5.11v3h.28a20.73,20.73,0,0,1,10.85-3.64c3.92,0,6.72,1.26,8.33,3.85h.28a21.93,21.93,0,0,1,11.76-3.85c6,0,9.52,2.73,9.52,9.45v25.9h-5.25V417.28c0-4.2-1.68-5.95-6.37-5.95-2.73,0-5.67,1.05-9,2.52a12.89,12.89,0,0,1,.21,2.31v25.9h-5.32V417.28c0-4.2-1.68-5.95-6.3-5.95-2.94,0-6,1.19-8.82,2.52v28.21H255Z" transform="translate(-5 -5)"/><path class="b" d="M308.87,433c0-6.09,3.92-9.31,10.57-10.08l9.38-1.12v-3.64c0-5.39-2.38-6.79-8.61-6.79a29.4,29.4,0,0,0-8.26,1.12V408.6a26.31,26.31,0,0,1,10.36-1.89c7.63,0,11.9,3.15,11.9,10.22v25.13h-4.34l-.56-3H329c-1.61,2-4.55,3.64-9.24,3.64C313.42,442.69,308.87,439.47,308.87,433Zm19.95,3V425.75l-8,.91c-4.27.42-6.37,2.17-6.37,6.16,0,3.78,2.59,5.67,6.58,5.67C324.27,438.49,327.35,437.44,328.82,436Z" transform="translate(-5 -5)"/><path class="b" d="M344.28,407.34h5.11v3.92h.35a13.58,13.58,0,0,1,9.67-4.27,14.63,14.63,0,0,1,2.09.14V412a19.1,19.1,0,0,0-2.51-.21,16.41,16.41,0,0,0-9.32,3v27.3h-5.39Z" transform="translate(-5 -5)"/><path class="b" d="M368.5,391.93h5.32v50.13H368.5Zm5.88,32.21,14-16.73h5.75l-13.66,16.31,14.78,18.34h-6.17Z" transform="translate(-5 -5)"/><path class="b" d="M399.79,425.19v-1c0-12.11,7.14-17.5,15.12-17.5,9.53,0,14,5.53,14,16.31v3H405.25c.28,8.68,4.41,12,11.83,12a23.64,23.64,0,0,0,10.86-2.59v4a20.68,20.68,0,0,1-11.7,3.22C405.32,442.69,399.79,436,399.79,425.19Zm5.46-3.43h18.07c0-7.56-2.87-10.71-8.55-10.71C410.43,411.05,405.81,413.57,405.25,421.76Z" transform="translate(-5 -5)"/><path class="b" d="M437,407.34h5.11v3.92h.35a13.57,13.57,0,0,1,9.66-4.27,14.79,14.79,0,0,1,2.1.14V412a19.1,19.1,0,0,0-2.51-.21,16.41,16.41,0,0,0-9.32,3v27.3H437Z" transform="translate(-5 -5)"/></g></g></svg>
