<?xml version="1.0" encoding="utf-8"?>
<!-- Generator: Adobe Illustrator 23.0.1, SVG Export Plug-In . SVG Version: 6.00 Build 0)  -->
<svg version="1.1" id="Layer_1" xmlns="http://www.w3.org/2000/svg" xmlns:xlink="http://www.w3.org/1999/xlink" x="0px" y="0px"
	 viewBox="0 0 173 312.5" style="enable-background:new 0 0 173 312.5;" xml:space="preserve">
<style type="text/css">
	.st0{fill:#FFFFFF;}
	.st1{fill:#FFFFFF;stroke:#FFFFFF;stroke-miterlimit:10;}
</style>
<g id="swipe_icon" transform="translate(-480.999 -1177.5)">
	<path class="st0" d="M608.3,1327.7c-0.3,6.7,4.4,6.9,9.2,7c0.6,0.7,1.5,1,2.5,1l7.5,5.8c1,1.5,1.9,3,2.9,4.5c1.1,3.4,1.8,7,2,10.6
		c0.4,2.3-4.1,6,1.9,6.6c3.5,0.8,6.3,2.8,9.2,4.7l1.6,1.8c2,3.1,3.6,6.4,4.6,9.9l0.3,5c-0.6,7.6-4.5,14-6.7,21.1
		c-1.7,2.8-3,5.8-4,8.9l-17.5,32l-10.8,16.1c-6.7,8-13.2,16.3-21.1,23.3c-1.7,1.6-3.6,2.9-5.7,3.9l-3.5-0.3c-3-1.4-5.1-4.4-5.3-7.7
		c0.9-2.5,2.4-4.7,4.4-6.4c7.1-6.4,13.5-13.7,18.9-21.6c9.3-11.8,16.7-24.7,23.3-38.2c1.8-3.3,3.7-6.5,4.7-10.1
		c3.3-5.9,5.6-12.2,7.9-18.5c0.6-1.6,1.1-3.1,0.3-4.8c-0.2-1.7-0.6-3.2-2.3-4c-4.3-2.2-7.6-1.3-10.1,3.1c-1.5,2.9-2.8,5.9-4,9
		c-1.1,2.2-2.9,4-5.2,5c-3.8,0.5-6.7-1-8.8-4.1l-0.6-2.9c2.6-9.1,7.7-17.2,10.7-26.1c1.6-3.2,4.2-6.1,2.1-10.1
		c-4.2-5.7-9.6-5.5-12.5,0.7c-3.1,6.7-5.9,13.6-8.9,20.4c-1.2,2-3,3.7-5.1,4.8c-3.4,0.5-6.9-1-8.8-3.9l-0.6-3.9l10.5-25.1
		c1.7-2.8,3.3-5.7,3.7-9c0.1-4-2.3-6.2-5.9-6.9s-6,1.3-7.5,4.6c-3.2,7.5-6.4,15-9.6,22.4c-1.7,3-3.2,6.1-7,7
		c-3.2,0.1-6.2-1.4-7.9-4.1l-0.4-5l11.1-25.5c1.7-3,3.1-6.3,4.1-9.6l11.6-25.9c2-4.4,4.1-8.7,6-13.1c1.6-3.9,0.2-7.6-3.5-9.1
		c-3.9-1.6-7.1-0.3-8.8,3.3c-5.3,11.8-10.4,23.7-15.5,35.6c-4.9,9.6-9.1,19.5-13.2,29.5c-1.7,2.8-3,5.8-3.9,8.9
		c-4.5,8.9-8.4,18-12.2,27.2c-1.7,2.8-3.1,5.8-3.9,8.9c-1.9,2.9-2.9,6.6-6.8,7.7l-5.1-0.6c-2.6-1.8-4.1-4.8-4-8l3.8-9
		c3.8-5.2,4.2-11,2.8-17l-0.7-5.1c-0.4-5.1,0.1-10.3-2.6-15c-1.7-3.2-4.6-4.2-7.9-3.7c-3.3,0.5-4.9,3-5.7,6.1
		c-1.2,4.1-1.8,8.4-1.7,12.6c-1.5,5.3-1.1,10.7-1.4,16.1c-0.9,1.9-0.3,4-0.3,6l-0.1,15l0.1,5.1c-0.4,4.7,0.6,9.3,0.9,14
		c-0.3,1.4,0,2.8,0.7,4.1c0,4.4,0.7,8.8,2.1,13c-0.2,1.4,0.1,2.9,1,4c0.5,4,1.7,7.8,3.6,11.3l1.5,3.8c-0.5,6.8-2.2,8.5-9.2,9
		l-2.8-1.5c-2.3-2.4-3-5.6-4.4-8.5l-1.1-3.2l-3.2-12l-1.1-5l-1.6-11.9c0.2-1.7,0-3.4-0.7-5l-0.5-14c0.4-1.7,0.2-3.4-0.5-5
		c0.6-5,0.8-10,0.5-15c0.1-2,0.1-4,0.2-6l1.3-16.1c0.8-1.9,1-4,0.7-6c0.7-3,1.2-6.1,2.2-9.1c3.4-11,9.7-15.4,23.1-16.1l5,1.1
		l7.7,4.3c4.2,4.2,7,9.6,7.9,15.5l15.8-36.7c4.6-8.8,8.4-18.1,12.2-27.2l3.8-8.9c2.3-3.6,5.3-6.6,8.8-9l7-2.2
		c4.4-0.2,8.9,0.5,13.1,2l3,1.9c2.8,2.2,4.7,5,6.8,7.8c0.2,0.9,0.1,1.9,1,2.5c1.1,4.6,1.1,9.4,0,14c-1.7,2.8-3,5.8-3.9,9l-10.1,21.7
		l5,0.9l2.3,0.8c3.1,1.8,6,4.2,8.3,6.9L608.3,1327.7z"/>
	<path class="st1" d="M642,1211.6c3.9,1.3,7.3,0.6,10.1-2.4l1.2-3c0.2-7.1-5.1-8.4-10.2-9.7c-2-0.4-4.1-0.3-5.9-1.4l-18-3.2
		c-2,0.2-4.1-0.1-6-0.9l-16-1.4c-2,0.5-4,0-6-0.4l-15-0.4l-5,0l-15,0.3l-4.8,0.5l-13.1,1l-5.1,0.4c-4.3,1-8.6,1.6-13,1.9l-5,1
		c-1.1,0.3-2.2,0.6-3.4,0.8c-1.8,0.3-4,1.3-5.2,0c-1.5-1.5,1.1-2.8,1.3-4.3c0.2-1.5,0.4-3,0.5-4.5c-0.9-3.2-3.2-5-6.3-6
		c-4.1,0-6.6,2.6-8.7,5.7l-0.9,1.4c-2,3.9-4.3,7.5-7.1,10.9l-0.8,1.3c-4.5,8-3.9,10.4,3.9,15.5c4.5,2.9,8.9,5.8,13.3,8.9
		c2.6,1.8,5.3,2.7,8.4,2l3-2.2c2.7-6.1,2.2-7.6-4-12.9c0.9-0.7,2.1-1.1,3.2-0.9l6.8-1.3l11.9-1.8l5.1-0.5c4.2-1.2,8.6-1.1,12.9-1.3
		c1.7-0.8,3.4-0.6,5.2-0.5c5-0.1,10-1.2,15-0.3c1.6-0.5,3.4-0.6,5,0c5-0.5,10.1-0.5,15,0.3l5,0.1c5.7,0.4,11.4,0.4,17,1.9
		c2-0.3,4.1,0,6,0.7c6.1,0.5,12.2,1.6,18.1,3.4C637.6,1210.1,639.8,1211.1,642,1211.6L642,1211.6z"/>
</g>
</svg>
